<?xml version="1.0" encoding="utf-8"?>
<!-- Generator: Adobe Illustrator 22.1.0, SVG Export Plug-In . SVG Version: 6.00 Build 0)  -->
<svg version="1.1" xmlns="http://www.w3.org/2000/svg" xmlns:xlink="http://www.w3.org/1999/xlink" x="0px" y="0px"
	 viewBox="0 0 512 627" style="enable-background:new 0 0 512 627;" xml:space="preserve">
<style type="text/css">
	.st0{fill:#87DCFF;}
	.st1{fill:#BEE86E;}
	.st2{fill:#00C3FF;}
	.st3{fill:#AFD755;}
	.st4{fill:#694B4B;}
	.st5{fill:#5A4146;}
	.st6{fill:#785550;}
	.st7{fill:#E6AF78;}
	.st8{fill:#EFF2FA;}
	.st9{fill:#D29B6E;}
	.st10{fill:#E4EAF6;}
	.st11{fill:#F0C087;}
	.st12{fill:#5B5D6E;}
	.st13{fill:#515262;}
	.st14{fill:#B4E1FA;}
	.st15{fill:#A0D2F0;}
</style>
<g id="Capa_1">
	<circle class="st0" cx="256" cy="258" r="256"/>
	<path class="st1" d="M285.8,3.8l-10.6,32.9c-2.6,8-9,14.1-17,16.3l-26.5,7.3c-2.1,0.6-4.3,0.9-6.6,0.9h-39.7
		c-4.1,0-7.6,3.1-8.2,7.2l-4.6,34.1l-25.3,1.3c-4.3,0.2-7.6,3.7-7.8,7.9l-0.9,22c-0.2,5,4,9,8.9,8.6l16.9-1.4
		c4.3-0.4,8.3-2.6,10.8-6.1L191,113l33.4-1.2c7.1-0.3,12.2,6.9,9.6,13.6c-5.8,14.9-5.8,16.2-5.8,17.5c0,4.6,3.7,8.3,8.3,8.3
		c4.1,0,7.5-3,8.1-6.9c0.6-1.9,3.1-8.5,6.4-16.9c1.4-3.5,6.1-4,8.2-0.9l2.1,3.2c3.9,6,11.3,8.7,18.2,6.8l14.7-4.1
		c4.1-1.1,7.4-4.2,8.9-8.2l2.8-7.5c2-5.3,6.6-9.2,12.1-10.3l9.5-2c6.5-1.3,13.4,2.6,14.5,9.1c1.2,6.7-3.5,12.7-10,13.5l-23,0.6
		c-4.7,0.1-8.4,3.9-8.5,8.6l-0.1,2.2c0,1.8,0.9,3.4,2.5,4.2l13.2,6.7c5,2.6,6.7,9,3.5,13.6l0,0c-1.7,2.6-4.7,4.1-7.8,4.1h-69.7
		c-1.8,0-3.6-0.3-5.3-1l-58.5-23c-4.3-1.7-9.2-0.8-12.7,2.4l-55.4,51.2c-4.4,4.1-6.3,10.2-4.8,16.1l11.3,45.7
		c1.7,7.1,7.9,12.2,15.2,12.5l62.4,3.4c12.3,0.7,22.2,10.2,23.3,22.5l4.7,51.4c0.4,3.8,1.4,7.6,3,11c5.3,11,17.5,35.9,24.3,44.5
		c8.8,11.1,30.4,11.5,37.7,4.9l50.7-41.5c4.2-3.9,7-9.1,7.8-14.7l5.9-40.8l40.3-44.4c3.9-4.3,2.2-11-2.8-13.1l-0.7,0.5
		c-3.1,2-6.6,3.3-10.2,3.6c-0.6,0.1-1.3,0.1-1.9,0.1c-7.5,0-14.4-3.8-18.4-10.2l-30.8-48.8c-2.4-3.9-1.3-9,2.6-11.4
		c3.9-2.4,9-1.3,11.4,2.6l30.8,48.8c1.1,1.7,2.9,2.6,4.9,2.5c0.9-0.1,1.7-0.4,2.5-0.9l41.6-22.8c4.3-2.4,5.5-8.1,2.4-11.9l0,0
		c-1.7-2.1-4.4-3.3-7.1-3l-8.7,1c-2.3,0.3-4.7-0.5-6.5-2.1L375,178.8c-3.4-3-3.7-8.3-0.6-11.7c3-3.4,8.3-3.7,11.7-0.6l23.4,20.9
		l14.2-1.6c2.9-0.4,5.9,0.9,7.6,3.3l2.7,3.7l13.9-1.7c6.7-0.8,13.3,2.6,16.5,8.5l28,51.7c2,3.8,5.4,6.6,9.5,7.9l10.1,3.5
		c0-1.6,0.1-3.2,0.1-4.9C512,126.7,413.1,18.6,285.8,3.8z M392.8,145.1c-1.4,1-3,1.4-4.6,1.4c-2.7,0-5.3-1.3-6.8-3.6l-17.2-25.5
		c-2.6-3.8-1.6-8.9,2.2-11.5c3.8-2.6,8.9-1.6,11.5,2.2l17.2,25.5C397.5,137.4,396.5,142.5,392.8,145.1z"/>
	<path class="st2" d="M340,430C198.6,430,84,315.4,84,174c0-49.2,13.9-95.1,37.9-134.1C48.8,85,0,165.8,0,258
		c0,141.4,114.6,256,256,256c92.2,0,173-48.8,218.1-121.9C435.1,416.1,389.1,430,340,430z"/>
	<g>
		<path class="st1" d="M367.5,393.2c-1.9,0-3.8-0.6-5.3-1.9c-3.5-2.9-3.9-8.1-1-11.6l21.7-25.8c2.9-3.5,8.1-3.9,11.6-1
			s3.9,8.1,1,11.6l-21.7,25.8C372.2,392.2,369.8,393.2,367.5,393.2z"/>
		<path class="st1" d="M185.6,11.9l-7.3,21.9c-1.5,4.3,0.9,9,5.2,10.5c0.9,0.3,1.8,0.4,2.6,0.4c3.5,0,6.7-2.2,7.8-5.6l10.7-31.9
			C198.1,8.5,191.8,10.1,185.6,11.9z"/>
	</g>
	<path class="st3" d="M42.9,399.8l7.1-64.9c0.6-5.1-1.3-10.2-4.9-13.7L1,280C4.7,324,19.6,364.9,42.9,399.8z"/>
	<path class="st1" d="M256,2c-9.3,0-18.4,0.5-27.4,1.5l-0.9,19.4c-2.2,6.5,1.3,13.5,7.8,15.7c1.3,0.4,2.6,0.6,3.9,0.6
		c5.2,0,10-3.3,11.8-8.5l9.5-28.6C259.2,2.1,257.6,2,256,2z"/>
</g>
<g id="Layer_1">
	
		<image style="overflow:visible;opacity:0.75;" width="518" height="408" xlink:href="79681599.png"  transform="matrix(1 0 0 1 -2 225)">
	</image>
	<g>
		<g>
			<path class="st4" d="M97.4,330.2c-78,0-69.4,94.9-69,163.7c0,2.6,1.4,4.9,3.6,6.3c8.6,5.2,32.4,17.4,65.4,17.4
				s56.8-12.2,65.4-17.4c2.2-1.3,3.6-3.7,3.6-6.3C166.8,425.1,175.5,330.2,97.4,330.2z"/>
			<path class="st5" d="M92.4,330.4c-72.6,4.1-64.3,96.2-64,163.5c0,2.6,1.4,4.9,3.6,6.3c8.6,5.2,32.4,17.4,65.4,17.4l19.7-138"/>
			<path class="st4" d="M97.4,330.2C53,330.2,50,383.9,50,383.9c25.6-4.3,41.3,6.5,67.2-4.3l-19.7,138c33,0,56.8-12.2,65.4-17.4
				c2.2-1.3,3.6-3.7,3.6-6.3C166.8,425.1,175.5,330.2,97.4,330.2z"/>
			<path class="st6" d="M166.4,493.9c0.3-59.1,6.7-137.4-41-158.3c-0.8,4.3-2.3,16.4,1.6,24.2c9.9,19.7,19.7,19.7,29.6,34.5
				c9.9,54.2-18.8,111.8-28.4,119.6l0,0c16.9-4,29-10.4,34.6-13.8C165.1,498.8,166.4,496.5,166.4,493.9z"/>
			<path class="st7" d="M172.1,508.9l-44-18.3c-3.7-1.5-6.1-5.1-6.1-9.1v-11.9H72.8v11.9c0,4-2.4,7.6-6.1,9.1l-44,18.3
				c-5.5,2.3-9.1,7.7-9.1,13.7v19.7c0,5.4,4.4,9.9,9.9,9.9h147.9c5.4,0,9.9-4.4,9.9-9.9v-19.7C181.2,516.5,177.6,511.2,172.1,508.9z
				"/>
			<path class="st8" d="M172.1,508.9l-42.5-17.7L97.4,505l-32.2-13.9l-42.5,17.7c-5.5,2.3-9.1,7.7-9.1,13.7v19.7
				c0,5.4,4.4,9.9,9.9,9.9h147.9c5.4,0,9.9-4.4,9.9-9.9v-19.7C181.2,516.5,177.6,511.2,172.1,508.9z"/>
			<path class="st9" d="M122.1,469.5H72.8v11.9c0,4-2.4,7.6-6.1,9.1l-6.9,2.9C112.4,506.8,122.1,469.5,122.1,469.5z"/>
			<g>
				<path class="st10" d="M37.6,527.9l-19.8-15.7c-2.7,2.7-4.2,6.4-4.2,10.3v19.7c0,5.4,4.4,9.9,9.9,9.9h19.7v-12.6
					C43.2,535,41.1,530.7,37.6,527.9z"/>
				<path class="st10" d="M181.2,542.2v-19.7c0-3.9-1.6-7.6-4.2-10.3l-19.9,15.7c-3.5,2.8-5.6,7.1-5.6,11.5v12.6h19.7
					C176.8,552.1,181.2,547.7,181.2,542.2z"/>
				<path class="st10" d="M98.2,542.2h-1.5c-2.3,0-4.2-1.9-4.2-4.2v-33h9.9v33C102.4,540.4,100.5,542.2,98.2,542.2z"/>
				<path class="st10" d="M97.4,505l-28.2-21.2c-1.8-1.4-4.4-0.9-5.6,1l-5.6,8.4l17.3,24.2c1.3,1.8,3.9,2.2,5.7,0.8L97.4,505z"/>
				<path class="st10" d="M97.4,505l28.2-21.2c1.8-1.4,4.4-0.9,5.6,1l5.6,8.4l-17.3,24.2c-1.3,1.8-3.9,2.2-5.7,0.8L97.4,505z"/>
			</g>
			<path class="st11" d="M122.1,374.6c-24.7,24.6-73,4.9-73,44.4l3.1,29.1c0.6,6.5,4.4,12.3,10.1,15.5l28.1,15.6
				c4.5,2.5,9.9,2.5,14.4,0l28.1-15.6c5.7-3.2,9.5-9,10.1-15.5l3.5-34.5c0.3-2.5,0.3-4.9,0.2-7.4C144.6,393.6,127,384.5,122.1,374.6
				z"/>
			<path class="st7" d="M49,419l3.1,29.1c0.6,6.5,4.4,12.3,10.1,15.5l28.1,15.6c3.1,1.7,6.7,2.2,10,1.5l0,0c0,0-14.2-4.3-22.6-27.1
				c-2.6-7-6.2-44-3.1-48.5c6.1-8.9,40.1-9.9,50.1-26.4c-0.5-0.6-1-1.2-1.4-1.8c0,0-0.1-0.1-0.1-0.2c-0.4-0.7-0.8-1.3-1.2-2
				C97.4,399.3,49,379.5,49,419z"/>
			<path class="st10" d="M133.4,542.2h-12.8c-4.6,0-8.4,3.8-8.4,8.4v1.5h29.6v-1.5C141.8,546,138,542.2,133.4,542.2z"/>
			<polygon class="st7" points="434.3,485.9 434.3,458.9 364.6,458.9 364.6,485.9 399.4,516.9 			"/>
			<path class="st8" d="M488.1,498.6l-47.9-11.3c-0.7-0.2-1.4-0.5-2-0.8l-38.8,22.6l-37.3-23.7c-1,0.9-2.2,1.6-3.5,1.9l-47.9,11.3
				c-7,1.6-11.9,7.9-11.9,15.1V544c0,4.3,3.5,7.7,7.7,7.7h185.7c4.3,0,7.7-3.5,7.7-7.7v-30.3C500,506.5,495.1,500.3,488.1,498.6z"/>
			<path class="st9" d="M364.6,458.9v28.6c43.9,15.8,69.6-23.7,69.6-23.7v-4.8H364.6L364.6,458.9z"/>
			<path class="st11" d="M349.1,369.9l3.4,74.2c0.3,6.9,3.7,13.4,9.3,17.5l16,12c4,3,8.9,4.6,13.9,4.6h15.5c5,0,9.9-1.6,13.9-4.6
				l16-12c5.5-4.2,8.9-10.6,9.3-17.5l3.4-74.2L349.1,369.9L349.1,369.9z"/>
			<path class="st7" d="M387.8,385.4c15.5,0,38.7-3.9,44.2-15.5h-82.9l3.4,74.2c0.3,6.9,3.7,13.4,9.3,17.5l16,12
				c4,3,8.9,4.6,13.9,4.6h7.7c-7.7,0-23.2-15.5-23.2-34.8c0-9.5,0-34.8,0-46.4C376.2,393.1,380.1,385.4,387.8,385.4z"/>
			<path class="st10" d="M471.6,526.6l25.1-22.5c2.1,2.7,3.3,6,3.3,9.6V544c0,4.3-3.5,7.7-7.7,7.7h-27.1V541
				C465.2,535.5,467.5,530.3,471.6,526.6z"/>
			<polygon class="st12" points="409.1,551.7 389.8,551.7 392.2,516.9 406.7,516.9 			"/>
			<path class="st13" d="M409.1,509.2h-19.3v2.2c0,5.2,4.2,9.4,9.4,9.4h0.6c5.2,0,9.4-4.2,9.4-9.4L409.1,509.2L409.1,509.2z"/>
			<g>
				<path class="st10" d="M364.1,477.3l35.4,31.8c0,0-9.9,5-22.1,15.1c-2.5,2.1-6.3,1.2-7.7-1.7L353,485.9l5.3-7.9
					C359.6,476.1,362.3,475.8,364.1,477.3z"/>
				<path class="st10" d="M434.8,477.3l-35.4,31.8c0,0,9.9,5,22.1,15.1c2.5,2.1,6.3,1.2,7.7-1.7l16.6-36.5l-5.3-7.9
					C439.3,476.1,436.5,475.8,434.8,477.3z"/>
			</g>
			<path class="st6" d="M422.9,344.3l3.6,25.6c16.6,3.3,18.9,29.3,19.3,36.7c0.1,1.3,0.5,2.6,1.2,3.8l6.3,9.8c0,0-2.2-16.2,7.7-27.1
				C461.1,393.1,464.5,328.8,422.9,344.3z"/>
			<path class="st11" d="M457.2,418.5l-4.4,17.5c-0.5,2.1-2.4,3.5-4.5,3.5l0,0c-2.3,0-4.3-1.7-4.6-4.1l-2.2-17.9
				c-0.6-4.8,3.1-9,7.9-9h0C454.7,408.6,458.5,413.5,457.2,418.5z"/>
			<path class="st4" d="M352.9,337.3l5.7,3.9c-25.9,19.1-21,51.9-21,51.9c7.7,7.7,7.7,27.1,7.7,27.1l7.7-7.7c0,0-3-22.3,11.6-30.9
				c13.5-8,25.4-3.9,37.5-3.9c32.4,0,41.5-12.2,39.9-27.1c-0.8-7.7-12.6-23.7-42.5-23.2C387.3,327.6,364.6,331.2,352.9,337.3z"/>
			<path class="st5" d="M350.6,374.2c0,0-4.1-16.2,8-33c-25.9,19.1-21,51.9-21,51.9c7.7,7.7,7.7,27.1,7.7,27.1l7.7-7.7
				c0,0-3-22.3,11.6-30.9c13.5-8,25.4-3.9,37.5-3.9c5.3,0,9.9-0.4,13.9-1C391.1,377.5,376.4,358.6,350.6,374.2z"/>
			<path class="st7" d="M341.7,418.5L346,436c0.5,2.1,2.4,3.5,4.5,3.5l0,0c2.3,0,4.3-1.7,4.6-4.1l2.2-17.9c0.6-4.8-3.1-9-7.9-9h0
				C344.2,408.6,340.4,413.5,341.7,418.5z"/>
			<path class="st10" d="M445.9,544h-19.3c-4.3,0-7.7,3.5-7.7,7.7l0,0h34.8l0,0C453.6,547.4,450.1,544,445.9,544z"/>
			<path class="st4" d="M257,233.2c-132.7,0-118,161.3-117.3,278.2c0,4.4,2.3,8.4,6.1,10.7c14.7,8.9,55.1,29.6,111.2,29.6
				s96.5-20.7,111.2-29.6c3.8-2.3,6.1-6.3,6.1-10.7C374.9,394.5,389.6,233.2,257,233.2z"/>
			<path class="st5" d="M248.4,233.6C125,240.5,139,397.1,139.6,511.4c0,4.4,2.3,8.4,6.1,10.7c14.7,8.9,55.1,29.6,111.2,29.6
				L290.5,317"/>
			<path class="st4" d="M257,233.2c-75.4,0-80.7,91.1-80.7,91.1c43.5-7.3,70.2,11,114.2-7.3L257,551.7c56.2,0,96.5-20.7,111.2-29.6
				c3.8-2.3,6.1-6.3,6.1-10.7C374.9,394.5,389.6,233.2,257,233.2z"/>
			<path class="st6" d="M374.3,511.4c0.5-100.5,11.4-233.6-69.7-269.1c-1.4,7.3-4,27.9,2.7,41.2c16.8,33.5,33.5,33.5,50.3,58.7
				c16.8,92.2-32,190-48.2,203.4l0,0c28.7-6.8,49.3-17.6,58.9-23.4C372,519.8,374.3,515.9,374.3,511.4z"/>
			<path class="st7" d="M384,536.9l-74.8-31.2c-6.2-2.6-10.3-8.7-10.3-15.5V470h-83.8v20.3c0,6.8-4.1,12.9-10.3,15.5l-74.8,31.2
				c-9.4,3.9-15.5,13.1-15.5,23.2v33.5c0,9.3,7.5,16.8,16.8,16.8h251.4c9.3,0,16.8-7.5,16.8-16.8v-33.5
				C399.4,549.9,393.3,540.8,384,536.9z"/>
			<path class="st14" d="M384,536.9l-72.3-30.1L257,530.4l-54.7-23.6l-72.3,30.1c-9.4,3.9-15.5,13.1-15.5,23.2v33.5
				c0,9.3,7.5,16.8,16.8,16.8h251.4c9.3,0,16.8-7.5,16.8-16.8v-33.5C399.4,549.9,393.3,540.8,384,536.9z"/>
			<path class="st9" d="M298.9,470h-83.8v20.3c0,6.8-4.1,12.9-10.3,15.5l-11.7,4.9C282.4,533.4,298.9,470,298.9,470z"/>
			<g>
				<path class="st15" d="M155.3,569.3l-33.6-26.8c-4.5,4.6-7.2,10.8-7.2,17.5v33.5c0,9.3,7.5,16.8,16.8,16.8h33.5v-21.4
					C164.8,581.3,161.3,574.1,155.3,569.3z"/>
				<path class="st15" d="M399.4,593.6v-33.5c0-6.7-2.7-12.8-7.1-17.4l-33.7,26.7c-6,4.8-9.4,12-9.4,19.6v21.4h33.5
					C391.9,610.4,399.4,602.9,399.4,593.6z"/>
				<path class="st15" d="M257,593.6L257,593.6c-4.6,0-8.4-3.8-8.4-8.4v-54.9h16.8v54.9C265.3,589.9,261.6,593.6,257,593.6z"/>
				<path class="st15" d="M257,530.4l-48-36c-3.1-2.3-7.5-1.6-9.6,1.6l-9.5,14.2l29.4,41.2c2.2,3.1,6.6,3.7,9.6,1.3L257,530.4z"/>
				<path class="st15" d="M257,530.4l48-36c3.1-2.3,7.5-1.6,9.6,1.6l9.5,14.2l-29.4,41.2c-2.2,3.1-6.6,3.7-9.6,1.3L257,530.4z"/>
			</g>
			<path class="st11" d="M298.9,299.5c-41.9,41.9-124.1,8.4-124.1,75.4l5.2,49.4c1,11,7.4,20.9,17.1,26.3l47.7,26.5
				c7.6,4.2,16.8,4.2,24.4,0l47.7-26.5c9.7-5.4,16.1-15.2,17.1-26.3l6-58.7c0.4-4.2,0.5-8.4,0.4-12.5
				C337.2,331.8,307.2,316.3,298.9,299.5z"/>
			<path class="st7" d="M174.7,384.1l5.2,49.4c1,11,7.4,20.9,17.1,26.3l47.7,26.5c5.3,2.9,11.3,3.7,17.1,2.6l0,0
				c0,0-24.1-7.3-38.4-46.1c-4.4-11.9-10.5-74.7-5.2-82.4c10.4-15.2,68.1-16.8,85.2-44.9c-0.8-1-1.6-2.1-2.3-3.1
				c-0.1-0.1-0.1-0.2-0.2-0.3c-0.7-1.1-1.4-2.2-2-3.4C257,350.6,174.7,317,174.7,384.1z"/>
			<path class="st15" d="M324,593.6h-33.5c-4.6,0-8.4,3.8-8.4,8.4v8.4h50.3V602C332.4,597.4,328.6,593.6,324,593.6z"/>
		</g>
	</g>
</g>
</svg>
