<svg height="490pt" viewBox="-9 0 490 490.74" width="490pt" xmlns="http://www.w3.org/2000/svg"><path d="m471.691406 263.898438c2.859375 23.742187-3.359375 47.042968-17.480468 65.382812l-42.171876 54.289062c-4.777343 6.121094-8.820312 12.785157-12.046874 19.851563l-11.742188 26.636719-1.101562 1.582031-74.929688-52.402344.730469-1.039062 4.3125-33.210938c2.339843-18.058593 7.320312-32.238281 18.148437-46.527343l27.691406-36.082032c3.058594-4.902344 8.46875-7.839844 14.25-7.730468 3.164063.003906 6.277344.816406 9.039063 2.363281 8.25 4.597656 12.328125 14.5 8.691406 22.738281l-13.710937 31.609375c-2.769532 6.378906 2.019531 13.96875 9.328125 14.769531l7.582031.832032c3.714844.492187 7.390625-1.171876 9.46875-4.289063l17.761719-27.472656c6.726562-10.492188 9.632812-22.984375 8.21875-35.371094-1.800781-16.828125-4.390625-40.976563-6.191407-57.359375-1.097656-9.730469 6.261719-17.980469 16.191407-18.359375l.5.03125c9.8125-.367187 18.335937 6.691406 19.800781 16.398437zm0 0" fill="#f7caa5"/><path d="m409.769531 447.460938-30.269531 43.277343-109.640625-76.679687 30.261719-43.277344 12.097656 8.457031 74.929688 52.402344zm0 0" fill="#00acea"/><path d="m307.378906 141.789062c0 27.660157-17.269531 51.371094-41.667968 62.171876v13.859374h-58.679688v-14.121093c-24.742188-10.570313-41.769531-34.390625-41.671875-62.148438.132813-35.570312 29.601563-65.691406 66.550781-67.859375 41.230469-2.421875 75.46875 29.007813 75.46875 68.097656zm0 0" fill="#fedb41"/><path d="m265.710938 217.820312v26.808594c-.003907 7.902344-6.410157 14.304688-14.3125 14.300782h-30.066407c-7.898437 0-14.300781-6.402344-14.300781-14.300782v-26.808594zm0 0" fill="#00acea"/><path d="m172.621094 370.78125 30.257812 43.277344-109.636718 76.679687-30.273438-43.277343 22.621094-15.820313 74.929687-52.402344zm0 0" fill="#00acea"/><path d="m159.789062 378.199219.730469 1.039062-74.929687 52.402344-1.097656-1.582031-11.742188-26.636719c-3.226562-7.066406-7.269531-13.730469-12.050781-19.851563l-42.167969-54.289062c-14.121094-18.339844-20.339844-41.640625-17.480469-65.382812l7.660157-63.359376c1.464843-9.707031 9.988281-16.765624 19.800781-16.398437l.5-.03125c9.929687.378906 17.289062 8.628906 16.1875 18.359375-1.800781 16.382812-4.390625 40.53125-6.1875 57.359375-1.414063 12.386719 1.488281 24.878906 8.21875 35.371094l17.761719 27.472656c2.078124 3.117187 5.75 4.78125 9.46875 4.289063l7.578124-.832032c7.3125-.800781 12.101563-8.390625 9.332032-14.769531l-13.710938-31.609375c-3.640625-8.238281.441406-18.140625 8.691406-22.738281 2.761719-1.546875 5.875-2.359375 9.039063-2.363281 5.777344-.109376 11.191406 2.828124 14.25 7.730468l27.691406 36.082032c10.828125 14.289062 15.808594 28.46875 18.148438 46.527343zm0 0" fill="#f7caa5"/><g fill="#f4b844"><path d="m236.371094 0c-4.417969 0-8 3.582031-8 8v34.878906c0 4.417969 3.582031 8 8 8 4.417968 0 8-3.582031 8-8v-34.878906c0-4.417969-3.582032-8-8-8zm0 0"/><path d="m137.058594 130.371094h-36.296875c-4.417969 0-8 3.582031-8 8 0 4.417968 3.582031 8 8 8h36.296875c4.421875 0 8-3.582032 8-8 0-4.417969-3.578125-8-8-8zm0 0"/><path d="m371.980469 130.371094h-36.300781c-4.417969 0-8 3.582031-8 8 0 4.417968 3.582031 8 8 8h36.300781c4.417969 0 8-3.582032 8-8 0-4.417969-3.582031-8-8-8zm0 0"/><path d="m146.058594 40.429688c-2.066406-2-5.046875-2.734376-7.808594-1.929688-2.757812.808594-4.875 3.035156-5.539062 5.832031-.664063 2.796875.226562 5.738281 2.328124 7.699219l25.839844 24.550781c3.210938 2.992188 8.234375 2.839844 11.257813-.34375 3.023437-3.179687 2.917969-8.203125-.238281-11.257812zm0 0"/><path d="m337.992188 40.722656c-3.042969-3.203125-8.109376-3.335937-11.3125-.292968l-25.839844 24.550781c-2.101563 1.960937-2.988282 4.898437-2.324219 7.699219.664063 2.796874 2.777344 5.023437 5.535156 5.828124 2.761719.808594 5.742188.070313 7.808594-1.929687l25.839844-24.546875c3.203125-3.042969 3.332031-8.105469.292969-11.308594zm0 0"/></g></svg>