<?xml version="1.0" encoding="iso-8859-1"?>
<!-- Generator: Adobe Illustrator 19.0.0, SVG Export Plug-In . SVG Version: 6.00 Build 0)  -->
<svg version="1.1" id="Capa_1" xmlns="http://www.w3.org/2000/svg" xmlns:xlink="http://www.w3.org/1999/xlink" x="0px" y="0px"
	 viewBox="0 0 512.009 512.009" style="enable-background:new 0 0 512.009 512.009;" xml:space="preserve">
<g transform="translate(0 -1)">
	<path style="fill:#AF8066;" d="M425.412,325.07c-11.269,25.801-15.473,54.135-12.181,82.097
		c1.957,18.202,5.531,36.193,10.681,53.76c2.819,9.083,6.33,17.937,10.504,26.483c3.972,8.21,13.241,17.302,15.801,25.6H227.057
		c0,0-13.33-54.29-43.52-67.972c-25.213,9.146-50.911,16.896-76.977,23.217c-12.633,2.721-25.155-5.042-28.337-17.567
		c-2.383-6.271-3.26-13.014-2.559-19.686c2.062-6.8,2.782-13.935,2.119-21.01c-2.295-8.915-10.858-11.122-17.567-15.89
		c-5.386-3.884,4.326-16.331,4.326-16.331s-10.329-7.68-14.125-11.034c-3.795-3.178,1.589-8.651,6.444-18.979
		c2.046-4.473,2.633-9.476,1.677-14.301c-1.766-9.446-16.154-13.065-23.217-18.273c-3.266-2.472-8.651-6.179-9.358-10.681
		c-0.881-6.268,6.532-15.095,10.153-19.509c15.371-19.849,28.543-41.308,39.283-64c1.452-2.378,2.3-5.075,2.472-7.857
		c-0.088-12.623-18.45-17.832-20.127-30.102c-0.263-3.601,0.374-7.211,1.854-10.505c5.09-10.821,9.455-21.968,13.065-33.368
		c2.162-10.469,4.992-20.789,8.474-30.897c7.335-20.339,18.75-38.964,33.545-54.731c21.628-22.863,53.584-34.163,83.774-40.166
		c27.676-6.101,55.765-10.144,84.038-12.094c56.584-2.825,101.252,16.331,144.948,50.582c23.885,17.774,41.331,42.843,49.7,71.415
		c6.444,23.573,9.447,47.954,8.916,72.386c-0.181,24.112-7.19,47.68-20.215,67.972C452.69,284.375,435.388,302.383,425.412,325.07z"
		/>
	<path style="fill:#BDC3C7;" d="M390.68,66.804c11.315,7.904,21.149,17.739,29.053,29.053l-17.794,17.794
		c5.917,9.221,10.147,19.42,12.493,30.122h25.15c2.411,13.592,2.411,27.502,0,41.094h-25.15
		c-2.346,10.702-6.576,20.901-12.493,30.122l17.794,17.794c-7.904,11.315-17.739,21.149-29.053,29.053l-17.793-17.794
		c-9.221,5.917-19.42,10.147-30.122,12.493v25.15c-13.592,2.411-27.502,2.411-41.094,0v-25.15
		c-10.702-2.346-20.901-6.576-30.122-12.493l-17.794,17.794c-11.315-7.904-21.149-17.739-29.053-29.053l17.794-17.793
		c-5.917-9.221-10.147-19.42-12.493-30.122h-25.15c-2.411-13.592-2.411-27.502,0-41.094h25.15
		c2.346-10.702,6.576-20.901,12.493-30.122l-17.794-17.794c7.904-11.315,17.739-21.149,29.053-29.053l17.793,17.794
		c9.221-5.917,19.42-10.147,30.122-12.493v-25.15c13.592-2.411,27.502-2.411,41.094,0v25.15
		c10.702,2.346,20.901,6.576,30.122,12.493L390.68,66.804z"/>
	<g>
		<path style="fill:#95A5A5;" d="M158.908,239.354c-2.341,0.001-4.587-0.929-6.243-2.585c-1.656-1.656-2.585-3.901-2.585-6.243
			v-17.655c0-4.875,3.952-8.828,8.828-8.828c4.875,0,8.828,3.952,8.828,8.828v17.655c0.001,2.341-0.929,4.587-2.585,6.243
			C163.495,238.425,161.249,239.355,158.908,239.354z"/>
		<path style="fill:#95A5A5;" d="M158.908,309.975c-2.341,0.001-4.587-0.929-6.243-2.585c-1.656-1.656-2.585-3.901-2.585-6.243
			v-17.655c0-4.875,3.952-8.828,8.828-8.828c4.875,0,8.828,3.952,8.828,8.828v17.655c0.001,2.341-0.929,4.587-2.585,6.243
			C163.495,309.046,161.249,309.975,158.908,309.975z"/>
		<path style="fill:#95A5A5;" d="M140.183,247.113c-2.342,0.003-4.588-0.928-6.241-2.586l-12.483-12.487
			c-2.23-2.23-3.101-5.48-2.285-8.526c0.816-3.046,3.195-5.425,6.241-6.241c3.046-0.816,6.296,0.055,8.526,2.285l12.483,12.487
			c2.524,2.525,3.279,6.321,1.913,9.619C146.972,244.961,143.754,247.111,140.183,247.113L140.183,247.113z"/>
		<path style="fill:#95A5A5;" d="M190.114,297.048c-2.342,0.003-4.588-0.928-6.241-2.586l-12.483-12.487
			c-3.447-3.447-3.447-9.036,0-12.483c3.447-3.447,9.036-3.447,12.483,0l12.483,12.487c2.524,2.525,3.279,6.321,1.913,9.619
			C196.903,294.896,193.685,297.047,190.114,297.048L190.114,297.048z"/>
		<path style="fill:#95A5A5;" d="M132.425,265.837H114.77c-4.875,0-8.828-3.952-8.828-8.828c0-4.875,3.952-8.828,8.828-8.828h17.655
			c4.875,0,8.828,3.952,8.828,8.828C141.252,261.885,137.3,265.837,132.425,265.837z"/>
		<path style="fill:#95A5A5;" d="M203.045,265.837H185.39c-4.875,0-8.828-3.952-8.828-8.828c0-4.875,3.952-8.828,8.828-8.828h17.655
			c4.875,0,8.828,3.952,8.828,8.828C211.873,261.885,207.921,265.837,203.045,265.837z"/>
		<path style="fill:#95A5A5;" d="M127.701,297.048c-3.57-0.001-6.788-2.152-8.154-5.45c-1.366-3.298-0.611-7.094,1.913-9.619
			l12.483-12.487c2.23-2.23,5.48-3.101,8.526-2.284c3.046,0.816,5.425,3.195,6.241,6.241c0.816,3.046-0.055,6.296-2.285,8.526
			l-12.483,12.487C132.289,296.12,130.042,297.051,127.701,297.048z"/>
		<path style="fill:#95A5A5;" d="M177.632,247.113c-3.57-0.001-6.788-2.152-8.154-5.45c-1.366-3.298-0.611-7.094,1.913-9.619
			l12.483-12.487c2.23-2.23,5.48-3.101,8.526-2.285c3.046,0.816,5.425,3.195,6.241,6.241c0.816,3.046-0.055,6.296-2.285,8.526
			l-12.483,12.487C182.22,246.185,179.973,247.116,177.632,247.113z"/>
	</g>
	<circle style="fill:#BDC3C7;" cx="158.908" cy="257.009" r="26.483"/>
	<g>
		<path style="fill:#95A5A5;" d="M126.27,144.923c-2.342,0.003-4.588-0.928-6.241-2.587l-9.983-9.987
			c-3.447-3.447-3.447-9.036,0-12.483c3.447-3.447,9.036-3.447,12.483,0l9.983,9.987c2.524,2.525,3.279,6.321,1.913,9.619
			C133.058,142.771,129.84,144.922,126.27,144.923L126.27,144.923z"/>
		<path style="fill:#95A5A5;" d="M166.218,184.876c-2.342,0.003-4.588-0.928-6.241-2.586l-9.983-9.987
			c-3.447-3.447-3.447-9.036,0-12.483c3.447-3.447,9.036-3.447,12.483,0l9.983,9.987c2.524,2.525,3.279,6.321,1.913,9.619
			C173.006,182.724,169.788,184.875,166.218,184.876L166.218,184.876z"/>
		<path style="fill:#95A5A5;" d="M120.063,159.906h-14.121c-4.875,0-8.828-3.952-8.828-8.828s3.952-8.828,8.828-8.828h14.121
			c4.875,0,8.828,3.952,8.828,8.828S124.938,159.906,120.063,159.906z"/>
		<path style="fill:#95A5A5;" d="M176.563,159.906h-14.121c-4.875,0-8.828-3.952-8.828-8.828s3.952-8.828,8.828-8.828h14.121
			c4.875,0,8.828,3.952,8.828,8.828S181.438,159.906,176.563,159.906z"/>
		<path style="fill:#95A5A5;" d="M116.287,184.876c-3.57-0.001-6.788-2.152-8.154-5.45c-1.366-3.298-0.611-7.094,1.913-9.619
			l9.983-9.987c3.447-3.447,9.036-3.447,12.483,0c3.447,3.447,3.447,9.036,0,12.483l-9.983,9.987
			C120.875,183.948,118.629,184.879,116.287,184.876z"/>
		<path style="fill:#95A5A5;" d="M156.235,144.923c-3.57-0.001-6.788-2.152-8.154-5.45c-1.366-3.298-0.611-7.094,1.913-9.619
			l9.983-9.987c3.447-3.447,9.036-3.447,12.483,0c3.447,3.447,3.447,9.036,0,12.483l-9.983,9.987
			C160.823,143.995,158.577,144.926,156.235,144.923z"/>
		<path style="fill:#95A5A5;" d="M141.252,195.216c-2.341,0.001-4.587-0.929-6.243-2.585c-1.656-1.656-2.585-3.901-2.585-6.243
			v-14.125c0-4.875,3.952-8.828,8.828-8.828s8.828,3.952,8.828,8.828v14.125c0.001,2.341-0.929,4.587-2.585,6.243
			C145.839,194.287,143.594,195.217,141.252,195.216z"/>
		<path style="fill:#95A5A5;" d="M141.252,138.721c-2.341,0.001-4.587-0.929-6.243-2.585s-2.585-3.901-2.585-6.243v-14.125
			c0-4.875,3.952-8.828,8.828-8.828s8.828,3.952,8.828,8.828v14.125c0.001,2.341-0.929,4.587-2.585,6.243
			C145.839,137.791,143.594,138.721,141.252,138.721z"/>
	</g>
	<circle style="fill:#BDC3C7;" cx="141.257" cy="151.082" r="21.186"/>
	<circle style="fill:#95A5A5;" cx="322.218" cy="164.32" r="48.552"/>
	<path style="fill:#7F5B53;" d="M211.873,444.777c-4.317-0.002-8-3.125-8.707-7.384c-0.707-4.259,1.769-8.405,5.854-9.802
		c8.259-2.823,15.828-5.47,22.051-7.642c7.121-2.487,12.518-4.366,15.224-5.224c36.655-11.668,44.095-24.888,43.879-33.922
		c-0.055-2.341,0.823-4.607,2.44-6.301c1.617-1.694,3.84-2.675,6.181-2.729c2.35-0.091,4.638,0.774,6.34,2.397
		c1.702,1.623,2.674,3.867,2.695,6.219c0.517,21.914-18.388,39.129-56.198,51.164c-2.638,0.836-7.853,2.659-14.733,5.065
		c-6.259,2.185-13.871,4.845-22.172,7.681C213.808,444.614,212.844,444.775,211.873,444.777z"/>
</g>
<g>
</g>
<g>
</g>
<g>
</g>
<g>
</g>
<g>
</g>
<g>
</g>
<g>
</g>
<g>
</g>
<g>
</g>
<g>
</g>
<g>
</g>
<g>
</g>
<g>
</g>
<g>
</g>
<g>
</g>
</svg>
